<svg id="Layer_1" data-name="Layer 1" xmlns="http://www.w3.org/2000/svg" viewBox="0 0 19.65 24"><defs><style>.cls-1{fill:#3a3e40;}</style></defs><g id="კალამი"><path class="cls-1" d="M5.89,0h8a1.23,1.23,0,0,1,1.23,1.23v.13a.67.67,0,0,1-.67.67H5.32a.67.67,0,0,1-.67-.67V1.23A1.23,1.23,0,0,1,5.89,0Z"/><path class="cls-1" d="M5.32,3.43h9.1a.67.67,0,0,1,.67.67v.13a1.23,1.23,0,0,1-1.23,1.23h-8A1.23,1.23,0,0,1,4.65,4.23V4.09a.67.67,0,0,1,.67-.67Z"/><rect class="cls-1" x="6.05" y="2.32" width="7.64" height="0.81" rx="0.38"/><path class="cls-1" d="M12.68,5.2h.76a.38.38,0,0,1,.38.38V15.72a1,1,0,0,1-1,1h-.1a.38.38,0,0,1-.38-.38V5.58a.38.38,0,0,1,.38-.38Z"/><path class="cls-1" d="M6.29,5.2h.09a1,1,0,0,1,1,1V16.41a.36.36,0,0,1-.36.36H6.29a.36.36,0,0,1-.36-.36V5.56a.36.36,0,0,1,.36-.36Z" transform="translate(13.29 21.97) rotate(-180)"/><path class="cls-1" d="M10.13,20V18.48a.26.26,0,0,1,.16-.24,1,1,0,0,0,0-1.82.25.25,0,0,1-.16-.24V5.47a.27.27,0,0,1,.26-.27h1.06a.27.27,0,0,1,.27.27V19a.27.27,0,0,1-.08.19l-1.06,1A.26.26,0,0,1,10.13,20Z"/><path class="cls-1" d="M9.58,20V18.48a.27.27,0,0,0-.17-.24,1,1,0,0,1,0-1.82.26.26,0,0,0,.17-.24V5.47a.27.27,0,0,0-.27-.27H8.25A.27.27,0,0,0,8,5.47V19a.27.27,0,0,0,.08.19l1.06,1A.26.26,0,0,0,9.58,20Z"/></g><g id="წიგნი"><path class="cls-1" d="M.48,22.6H19.17a.48.48,0,0,1,.48.48v.09a.83.83,0,0,1-.83.83H.83A.83.83,0,0,1,0,23.17v-.09a.48.48,0,0,1,.48-.48Z"/><path class="cls-1" d="M18.91,21.62a.29.29,0,0,0-.22-.1A22.91,22.91,0,0,1,15,21.37a23.22,23.22,0,0,1-3.95-.83.27.27,0,0,0-.2,0,2.05,2.05,0,0,0-.78.77l0,0a.27.27,0,0,1-.47,0l0,0a2,2,0,0,0-.78-.77.27.27,0,0,0-.2,0,23.22,23.22,0,0,1-3.95.83A22.91,22.91,0,0,1,1,21.52a.3.3,0,0,0-.22.1l-.35.45a.26.26,0,0,0,.2.43H19.06a.26.26,0,0,0,.2-.43Z"/></g></svg>